<svg width="51" height="50" viewBox="0 0 51 50" fill="none" xmlns="http://www.w3.org/2000/svg">
<rect x="0.666748" width="50" height="50" rx="25" fill="#F7F7F9"/>
<path d="M23.7793 12.7877L17.5418 15.1377C16.1043 15.6752 14.9293 17.3752 14.9293 18.9002V28.1877C14.9293 29.6627 15.9043 31.6002 17.0918 32.4877L22.4668 36.5002C24.2293 37.8252 27.1293 37.8252 28.8918 36.5002L34.2668 32.4877C35.4543 31.6002 36.4293 29.6627 36.4293 28.1877V18.9002C36.4293 17.3627 35.2543 15.6627 33.8168 15.1252L27.5793 12.7877C26.5168 12.4002 24.8168 12.4002 23.7793 12.7877Z" fill="#F7F7F9" stroke="#242C3C" stroke-linecap="round" stroke-linejoin="round"/>
<path d="M20.0416 26.0283L23.1063 29.093L31.2916 20.9077" stroke="#242C3C" stroke-linecap="round" stroke-linejoin="round"/>
</svg>
