<svg width="52" height="52" viewBox="0 0 52 52" fill="none" xmlns="http://www.w3.org/2000/svg">
<path d="M18.0938 51.4128H33.0938C45.5938 51.4128 50.5938 46.4128 50.5938 33.9128V18.9128C50.5938 6.41284 45.5938 1.41284 33.0938 1.41284H18.0938C5.59375 1.41284 0.59375 6.41284 0.59375 18.9128V33.9128C0.59375 46.4128 5.59375 51.4128 18.0938 51.4128Z" fill="#CF0953" stroke="#CF0953" stroke-linecap="round" stroke-linejoin="round"/>
<path d="M13.1787 24.8058H38.8457V37.6629C38.8457 38.0892 38.6767 38.498 38.3759 38.7994C38.075 39.1007 37.667 39.2701 37.2415 39.2701H14.7829C14.3574 39.2701 13.9494 39.1007 13.6486 38.7994C13.3477 38.498 13.1787 38.0892 13.1787 37.6629V24.8058Z" stroke="white" stroke-linecap="round" stroke-linejoin="round"/>
<path d="M19.5947 13.5557C20.9749 13.7763 22.2805 14.3307 23.3986 15.1709C24.5167 16.011 25.4136 17.1115 26.0115 18.3771" stroke="white" stroke-linecap="round" stroke-linejoin="round"/>
<path d="M32.4285 13.5557C31.0483 13.7763 29.7427 14.3307 28.6246 15.1709C27.5065 16.011 26.6096 17.1115 26.0117 18.3771" stroke="white" stroke-linecap="round" stroke-linejoin="round"/>
<path d="M26.0119 39.2699V18.3771M38.8454 24.8056H13.1784C12.7529 24.8056 12.3449 24.6363 12.0441 24.3349C11.7432 24.0335 11.5742 23.6247 11.5742 23.1985V19.9842C11.5742 19.558 11.7432 19.1492 12.0441 18.8478C12.3449 18.5464 12.7529 18.3771 13.1784 18.3771H38.8454C39.2709 18.3771 39.6789 18.5464 39.9797 18.8478C40.2806 19.1492 40.4496 19.558 40.4496 19.9842V23.1985C40.4496 23.6247 40.2806 24.0335 39.9797 24.3349C39.6789 24.6363 39.2709 24.8056 38.8454 24.8056Z" stroke="white" stroke-linecap="round" stroke-linejoin="round"/>
</svg>
