<svg width="52" height="52" viewBox="0 0 52 52" fill="none" xmlns="http://www.w3.org/2000/svg">
<path d="M18.0938 51.4128H33.0938C45.5938 51.4128 50.5938 46.4128 50.5938 33.9128V18.9128C50.5938 6.41284 45.5938 1.41284 33.0938 1.41284H18.0938C5.59375 1.41284 0.59375 6.41284 0.59375 18.9128V33.9128C0.59375 46.4128 5.59375 51.4128 18.0938 51.4128Z" fill="#CF0953" stroke="#CF0953" stroke-linecap="round" stroke-linejoin="round"/>
<path d="M20.1986 38.0059L18.2215 20.7603C18.1534 20.1667 18.6175 19.6464 19.2149 19.6464H34.1127C34.7111 19.6464 35.1755 20.1683 35.1059 20.7626L33.0867 38.0107C32.9687 39.0184 32.1148 39.7781 31.1002 39.7781H22.1856C21.1692 39.7781 20.3144 39.0157 20.1986 38.0059Z" stroke="white"/>
<path d="M22.4893 22.5481V25.1783C22.4893 26.6959 23.7194 27.926 25.237 27.926V27.926C26.7545 27.926 27.9847 26.9694 27.9847 25.7892V22.5481" stroke="white" stroke-linecap="round"/>
<path d="M29.9346 16.287C29.9346 16.9907 29.3487 17.5794 28.603 17.5794C27.8574 17.5794 27.2715 16.9907 27.2715 16.287C27.2715 15.5834 27.8574 14.9946 28.603 14.9946C29.3487 14.9946 29.9346 15.5834 29.9346 16.287Z" stroke="white"/>
<path d="M24.737 14.194C24.737 15.5576 23.6044 16.6813 22.1844 16.6813C20.7644 16.6813 19.6318 15.5576 19.6318 14.194C19.6318 12.8304 20.7644 11.7067 22.1844 11.7067C23.6044 11.7067 24.737 12.8304 24.737 14.194Z" stroke="white"/>
</svg>
