<svg width="52" height="52" viewBox="0 0 52 52" fill="none" xmlns="http://www.w3.org/2000/svg">
<path d="M18.0938 51.4128H33.0938C45.5938 51.4128 50.5938 46.4128 50.5938 33.9128V18.9128C50.5938 6.41284 45.5938 1.41284 33.0938 1.41284H18.0938C5.59375 1.41284 0.59375 6.41284 0.59375 18.9128V33.9128C0.59375 46.4128 5.59375 51.4128 18.0938 51.4128Z" fill="#CF0953" stroke="#CF0953" stroke-linecap="round" stroke-linejoin="round"/>
<path d="M23.6069 15.3713V13.661M23.6069 13.661V13.661C23.6069 12.7164 24.3726 11.9507 25.3172 11.9507H25.5933L25.8913 11.9507C26.8239 11.9507 27.5798 12.7164 27.5798 13.661M23.6069 13.661C21.9737 13.851 18.7073 15.5591 18.7073 20.8709M18.7073 20.8709H17.383M18.7073 20.8709H20.0316M20.0316 20.8709H25.5933L31.1551 20.8709M20.0316 20.8709C20.3928 22.3666 21.4203 24.9266 23.1476 26.2785M23.1476 26.2785C23.8473 26.8261 24.6618 27.1754 25.5933 27.1754C26.5249 27.1754 27.3394 26.8261 28.0391 26.2785M23.1476 26.2785C23.1336 26.9515 22.87 28.0795 22.0835 29.0042M19.7005 30.3947C15.8355 30.3947 13.8076 33.0775 13.8076 35.9614V35.9614C13.8076 37.369 14.9487 38.51 16.3562 38.51H17.7143M19.7005 30.3947V34.1506M19.7005 30.3947C20.8131 30.3947 21.554 29.6268 22.0835 29.0042M17.7143 38.51C18.4204 39.1807 20.9848 40.5221 25.5933 40.5221C30.2019 40.5221 32.7662 39.1807 33.4724 38.51M17.7143 38.51C19.277 38.51 19.6895 36.811 19.7005 35.9614V34.1506M19.7005 34.1506H22.0835M22.0835 29.0042V34.1506M22.0835 34.1506H25.5933L29.1031 34.1506M27.5798 13.661V15.3713M27.5798 13.661C29.213 13.851 32.4794 15.5591 32.4794 20.8709M32.4794 20.8709H33.8036M32.4794 20.8709H31.1551M31.1551 20.8709C30.7938 22.3666 29.7663 24.9266 28.0391 26.2785M28.0391 26.2785C28.0531 26.9515 28.3167 28.0794 29.1031 29.0042M31.4862 30.3947C34.9157 30.3947 37.379 33.0775 37.379 35.9614V36.3891C37.379 37.5605 36.4416 38.51 35.2852 38.51H33.4724M31.4862 30.3947V34.1506M31.4862 30.3947C30.3736 30.3947 29.6327 29.6268 29.1031 29.0042M33.4724 38.51C31.9097 38.51 31.4971 36.811 31.4862 35.9614V34.1506M31.4862 34.1506H29.1031M29.1031 29.0042V34.1506" stroke="white" stroke-linecap="round"/>
</svg>
