<svg width="52" height="52" viewBox="0 0 52 52" fill="none" xmlns="http://www.w3.org/2000/svg">
<path d="M18.5938 51.4128H33.5938C46.0938 51.4128 51.0938 46.4128 51.0938 33.9128V18.9128C51.0938 6.41284 46.0938 1.41284 33.5938 1.41284H18.5938C6.09375 1.41284 1.09375 6.41284 1.09375 18.9128V33.9128C1.09375 46.4128 6.09375 51.4128 18.5938 51.4128Z" fill="#CF0953" stroke="#CF0953" stroke-linecap="round" stroke-linejoin="round"/>
<path d="M34.4808 21.2084L38.0614 12.127H29.5803L27.0723 18.2626" fill="#CF0953"/>
<path d="M34.4808 21.2084L38.0614 12.127H29.5803L27.0723 18.2626" stroke="white" stroke-linecap="round" stroke-linejoin="round"/>
<path d="M25.95 18.2626L23.442 12.127H14.9609L18.5415 21.2084" fill="#CF0953"/>
<path d="M25.95 18.2626L23.442 12.127H14.9609L18.5415 21.2084" stroke="white" stroke-linecap="round" stroke-linejoin="round"/>
<path d="M26.511 40.6982C32.89 40.6982 38.0611 35.6689 38.0611 29.4649C38.0611 23.261 32.89 18.2317 26.511 18.2317C20.1321 18.2317 14.9609 23.261 14.9609 29.4649C14.9609 35.6689 20.1321 40.6982 26.511 40.6982Z" fill="#CF0953" stroke="white" stroke-linecap="round" stroke-linejoin="round"/>
<path d="M23.8242 29.2211L25.9845 31.2816L30.3212 27.1606" fill="#CF0953"/>
<path d="M23.8242 29.2211L25.9845 31.2816L30.3212 27.1606" stroke="white" stroke-linecap="round" stroke-linejoin="round"/>
</svg>
